<?xml version="1.0" encoding="UTF-8"?>
<svg width="36px" height="48px" viewBox="0 0 36 48" version="1.1" xmlns="http://www.w3.org/2000/svg" xmlns:xlink="http://www.w3.org/1999/xlink">
    <!-- Generator: Sketch 52 (66869) - http://www.bohemiancoding.com/sketch -->
    <title>Group 9 Copy</title>
    <desc>Created with Sketch.</desc>
    <g id="Page-1" stroke="none" stroke-width="1" fill="none" fill-rule="evenodd">
        <g id="Artboard" transform="translate(-873.000000, -201.000000)">
            <g id="Upcoming">
                <g id="Group-32" transform="translate(852.000000, 77.000000)">
                    <g id="Group-11-Copy" transform="translate(0.000000, 103.000000)">
                        <g id="Group-9-Copy" transform="translate(21.000000, 21.000000)">
                            <ellipse id="Oval-Copy-18" fill="#CADFFF" cx="12.0789474" cy="24" rx="11.8421053" ry="12"></ellipse>
                            <ellipse id="Oval-Copy-23" fill="#CADFFF" cx="29.8421053" cy="42" rx="5.92105263" ry="6"></ellipse>
                            <ellipse id="Oval-Copy-24" fill="#FFEA6B" cx="6.15789474" cy="6" rx="5.92105263" ry="6"></ellipse>
                            <rect id="Rectangle-6-Copy-22" fill="#F5C8CD" transform="translate(12.078947, 42.000000) rotate(-180.000000) translate(-12.078947, -42.000000) " x="0.236842105" y="36" width="23.6842105" height="12"></rect>
                            <rect id="Rectangle-6-Copy-23" fill="#F5C8CD" transform="translate(23.921053, 6.000000) rotate(-180.000000) translate(-23.921053, -6.000000) " x="12.0789474" y="0" width="23.6842105" height="12"></rect>
                            <path d="M29.8421053,30 C36.3822521,30 41.6842105,24.6273488 41.6842105,18 L18,18 C18,24.6273488 23.3019584,30 29.8421053,30" id="Fill-1-Copy-48" fill="#FFEA6B" transform="translate(29.842105, 24.000000) rotate(-90.000000) translate(-29.842105, -24.000000) "></path>
                        </g>
                    </g>
                </g>
            </g>
        </g>
    </g>
</svg>