<?xml version="1.0" encoding="UTF-8"?>
<svg width="36px" height="48px" viewBox="0 0 36 48" version="1.1" xmlns="http://www.w3.org/2000/svg" xmlns:xlink="http://www.w3.org/1999/xlink">
    <!-- Generator: Sketch 52 (66869) - http://www.bohemiancoding.com/sketch -->
    <title>Group 8 Copy</title>
    <desc>Created with Sketch.</desc>
    <g id="Page-1" stroke="none" stroke-width="1" fill="none" fill-rule="evenodd">
        <g id="Artboard" transform="translate(-873.000000, -407.000000)">
            <g id="Upcoming">
                <g id="Group-32" transform="translate(852.000000, 77.000000)">
                    <g id="Group-11-Copy-3" transform="translate(0.000000, 309.000000)">
                        <g id="Group-8-Copy" transform="translate(21.000000, 21.000000)">
                            <ellipse id="Oval-Copy-30" fill="#CADFFF" cx="29.8421053" cy="42" rx="5.92105263" ry="6"></ellipse>
                            <path d="M12.0789474,48 C18.6190942,48 23.9210526,42.6273488 23.9210526,36 L0.236842105,36 C0.236842105,42.6273488 5.53880049,48 12.0789474,48" id="Fill-1-Copy-52" fill="#F5C8CD" transform="translate(12.078947, 42.000000) rotate(-180.000000) translate(-12.078947, -42.000000) "></path>
                            <path d="M12.0789474,36 C18.6190942,36 23.9210526,30.6273488 23.9210526,24 L0.236842105,24 C0.236842105,30.6273488 5.53880049,36 12.0789474,36" id="Fill-1-Copy-54" fill="#CADFFF" transform="translate(12.078947, 30.000000) rotate(-180.000000) translate(-12.078947, -30.000000) "></path>
                            <path d="M35.7631579,24 L35.7631579,36 L23.9210526,24 L0.236842105,24 L0.236842105,0 L35.7631579,0 L35.7631579,24 Z" id="Combined-Shape" fill="#FFEA6B"></path>
                        </g>
                    </g>
                </g>
            </g>
        </g>
    </g>
</svg>