<svg xmlns="http://www.w3.org/2000/svg" xmlns:xlink="http://www.w3.org/1999/xlink" width="2329" height="2521" viewBox="0 0 2329 2521">
  <defs>
    <polygon id="a" points=".001 0 2328.794 0 2328.794 2520.998 .001 2520.998"/>
  </defs>
  <g fill="none" fill-rule="evenodd">
    <mask id="b" fill="white">
      <use xlink:href="#a"/>
    </mask>
    <path fill="#32C3FF" d="M1091.16333,2502.14013 L80.4055535,1945.73818 C30.8587648,1918.46293 0.000821126761,1865.83809 0.000821126761,1808.61878 L0.000821126761,712.377939 C0.000821126761,655.162736 30.8587648,602.533781 80.4055535,575.262638 L1091.16333,18.8606932 C1136.84261,-6.28771889 1191.94843,-6.28771889 1237.62771,18.8606932 L2248.38959,575.262638 C2297.93638,602.533781 2328.79432,655.162736 2328.79432,712.377939 L2328.79432,1808.61878 C2328.79432,1865.83809 2297.93638,1918.46293 2248.38959,1945.73818 L1237.62771,2502.14013 C1191.94843,2527.28443 1136.84261,2527.28443 1091.16333,2502.14013" mask="url(#b)"/>
    <path fill="#FFFFFF" d="M1238.96902 1241.80313C1238.96902 1241.80313 1095.71114 1241.80313 1238.96902 1241.80313L1238.96902 1241.80313zM740.861209 987.358683C740.861209 987.358683 741.296406 987.416165 741.444209 987.416165 741.238927 987.416165 741.004906 987.358683 740.713406 987.329942L740.861209 987.358683 740.861209 987.358683zM740.54097 987.329942L740.713406 987.329942C740.713406 987.329942 740.364427 987.329942 740.187885 987.27246 740.335688 987.329942 740.364427 987.329942 740.364427 987.329942L740.54097 987.329942zM739.518667 987.182131L739.576146 987.182131 739.403709 987.182131 739.518667 987.182131 739.518667 987.182131zM738.964406 987.182131L739.37497 987.182131 738.964406 987.182131 738.964406 987.182131zM452.481491 1237.05265L546.139209 1237.05265 546.139209 776.830548 452.481491 776.830548 452.481491 1237.05265zM746.017885 987.970457C746.104104 987.970457 746.104104 988.027939 746.104104 988.027939L746.017885 987.970457 746.017885 987.970457zM744.823146 987.851386C745.291188 987.851386 745.783864 987.970457 745.783864 987.970457 745.668906 987.970457 745.291188 987.851386 744.823146 987.851386L744.823146 987.851386zM742.462406 987.55987C742.753906 987.55987 742.901709 987.621458 743.045406 987.650199 742.901709 987.621458 742.667688 987.55987 742.667688 987.55987L742.462406 987.55987zM738.964406 987.182131L738.964406 848.872023C758.051498 846.424929 779.589653 844.996088 797.888463 844.996088 865.146956 844.996088 888.023547 865.365276 888.023547 916.191756 888.023547 974.798847 853.86878 989.514261 795.938287 989.514261 777.606632 989.514261 759.656801 989.370556 741.444209 987.416165L741.587906 987.502388C741.296406 987.416165 741.152709 987.358683 740.861209 987.358683L740.54097 987.329942C740.54097 987.329942 740.187885 987.329942 740.015449 987.27246L740.187885 987.27246 739.92923 987.27246C739.92923 987.27246 739.695209 987.27246 739.576146 987.182131L739.695209 987.27246C739.695209 987.27246 739.576146 987.27246 739.518667 987.182131L739.255906 987.182131 738.964406 987.182131 738.964406 987.182131zM645.713146 784.6399L645.713146 1237.05265 738.964406 1237.05265 738.964406 1061.37918C755.226822 1062.3728 776.498111 1063.4198 795.293702 1063.4198L889.772547 1237.05265 997.303202 1237.05265 892.162026 1052.72402C946.303019 1036.34574 980.486526 998.054457 980.486526 916.598237 980.486526 792.190582 897.318702 772.108805 795.527723 772.108805 740.364427 772.108805 685.607589 777.471062 645.713146 784.6399L645.713146 784.6399zM1149.65096 1006.97239C1149.65096 913.0713 1151.60524 848.872023 1238.96902 848.872023 1325.98382 848.872023 1328.11054 913.0713 1328.11054 1006.97239 1328.11054 1100.78315 1325.98382 1164.7484 1238.96902 1164.7484 1151.60524 1164.7484 1149.65096 1100.78315 1149.65096 1006.97239L1149.65096 1006.97239zM1054.74102 1006.97239C1054.74102 1173.63759 1095.71114 1241.80313 1238.96902 1241.80313 1381.99288 1241.80313 1422.90962 1173.63759 1422.90962 1006.97239 1422.90962 840.245605 1381.99288 772.108805 1238.96902 772.108805 1095.71114 772.108805 1054.74102 840.245605 1054.74102 1006.97239L1054.74102 1006.97239zM1510.4171 842.080926L1510.4171 1237.05265 1594.37321 1237.05265 1594.37321 898.240922 1740.45987 1181.09794C1764.14938 1226.88242 1785.74501 1241.80313 1820.01474 1241.80313 1855.82818 1241.80313 1876.31529 1220.55939 1876.31529 1171.62572L1876.31529 776.830548 1792.44541 776.830548 1792.44541 1114.30376 1646.24379 832.522476C1623.13728 788.138095 1598.91815 772.108805 1566.95168 772.108805 1531.66376 772.108805 1510.4171 793.003543 1510.4171 842.080926L1510.4171 842.080926zM730.317531 1318.49573L730.317531 1511.7505 488.581918 1511.7505 488.581918 1318.49573 452.48108 1318.49573 452.48108 1746.61819 488.581918 1746.61819 488.581918 1542.94685 730.317531 1542.94685 730.317531 1746.61819 766.336256 1746.61819 766.336256 1318.49573 730.317531 1318.49573zM1824.62495 1318.49573L1626.5856 1516.85819 1626.5856 1318.49573 1590.57098 1318.49573 1590.57098 1746.61819 1626.5856 1746.61819 1626.5856 1536.32409 1828.39393 1746.61819 1876.31078 1746.61819 1662.9492 1525.39428 1870.60395 1318.49573 1824.62495 1318.49573zM1026.6786 1362.27655L1111.61185 1589.6962 941.285524 1589.6962 1026.6786 1362.27655zM1001.13335 1338.47486L845.189059 1746.61819 882.18082 1746.61819 929.785644 1619.55404 1122.82844 1619.55404 1170.462 1746.61819 1208.93179 1746.61819 1054.84735 1338.47486C1048.76691 1322.37577 1040.34626 1314.04497 1027.73375 1314.04497 1015.28957 1314.04497 1007.38212 1322.12121 1001.13335 1338.47486L1001.13335 1338.47486zM1245.46372 1532.55901C1245.46372 1684.48416 1278.65777 1750.98683 1416.01996 1750.98683 1451.468 1750.98683 1482.71598 1747.16016 1509.51756 1741.93751L1506.17557 1713.02812C1482.51891 1716.27997 1458.77193 1719.58929 1434.85661 1719.58929 1299.77715 1719.58929 1282.11061 1658.19843 1282.11061 1532.55901 1282.11061 1407.17416 1296.92374 1345.46714 1434.85661 1345.46714 1457.97133 1345.46714 1484.02978 1348.92017 1506.03598 1352.31572L1509.51756 1322.49073C1482.71598 1317.29682 1450.58119 1314.04497 1416.01996 1314.04497 1278.85484 1314.04497 1245.46372 1380.34645 1245.46372 1532.55901L1245.46372 1532.55901z"/>
  </g>
</svg>
